<svg viewBox="0 0 24 24" fill="none" xmlns="http://www.w3.org/2000/svg">
  <path d="M23.638 14.904c-1.602 6.43-8.113 10.34-14.542 8.736C2.67 22.05-1.244 15.525.362 9.105 1.962 2.67 8.475-1.243 14.9.358c6.43 1.605 10.342 8.115 8.738 14.546z" fill="#F7931A"/>
  <path d="M17.464 10.535c.26-1.738-1.06-2.67-2.864-3.294l.585-2.344-1.43-.356-.57 2.284c-.376-.094-.762-.182-1.146-.27l.574-2.298-1.428-.356-.585 2.344c-.31-.07-.614-.138-.91-.21l.002-.009-1.968-.49-.38 1.52s1.06.243 1.038.258c.58.145.684.53.666.834l-1.67 6.69c-.04.098-.14.245-.366.189.008.011-1.04-.26-1.04-.26l-.71 1.678 1.86.463c.345.086.682.176 1.014.26l-.59 2.36 1.427.356.585-2.344c.39.106.767.203 1.13.295l-.583 2.336 1.43.356.59-2.36c2.4.454 4.202.271 4.96-1.9.61-1.75-.03-2.76-1.29-3.42.92-.212 1.61-.816 1.794-2.064zm-3.01 4.22c-.433 1.738-3.37.8-4.322.63l.771-3.09c.952.24 3.998.72 3.551 2.46zm.433-4.25c-.395 1.585-2.835.78-3.629.61l.698-2.79c.794.2 3.35.57 2.931 2.18z" fill="#FFF"/>
</svg>
