<svg viewBox="0 0 24 24" fill="none" xmlns="http://www.w3.org/2000/svg">
  <path d="M22.56 12.25C22.56 11.47 22.49 10.72 22.36 10H12V14.26H17.92C17.66 15.63 16.88 16.79 15.71 17.57V20.34H19.28C21.36 18.42 22.56 15.6 22.56 12.25Z" fill="#4285F4"/>
  <path d="M12 23C15.24 23 17.96 21.99 19.28 20.34L15.71 17.57C14.73 18.23 13.48 18.61 12 18.61C8.87 18.61 6.22 16.58 5.27 13.74H1.64V16.57C2.98 19.24 6.32 23 12 23Z" fill="#34A853"/>
  <path d="M5.27 13.74C5.02 13.02 4.89 12.26 4.89 11.5C4.89 10.74 5.02 9.98 5.27 9.26V6.43H1.64C0.89 7.99 0.5 9.7 0.5 11.5C0.5 13.3 0.89 15.01 1.64 16.57L5.27 13.74Z" fill="#FBBC05"/>
  <path d="M12 5.38C13.62 5.38 15.06 5.94 16.21 7.02L19.36 3.87C17.96 2.58 15.24 1.5 12 1.5C6.32 1.5 2.98 5.26 1.64 7.93L5.27 10.76C6.22 7.92 8.87 5.38 12 5.38Z" fill="#EA4335"/>
</svg>
