<svg width="200" height="200" viewBox="0 0 200 200" xmlns="http://www.w3.org/2000/svg">
  <defs>
    <linearGradient id="augustGrad" x1="0%" y1="0%" x2="100%" y2="100%">
      <stop offset="0%" style="stop-color:#f1f8e9;stop-opacity:0.8" />
      <stop offset="100%" style="stop-color:#c5e1a5;stop-opacity:0.6" />
    </linearGradient>
  </defs>
  <!-- Back to school elements -->
  <g transform="translate(40, 40)">
    <rect x="0" y="0" width="20" height="15" fill="#ff9800" opacity="0.8" rx="2">
      <animate attributeName="opacity" values="0.8;1;0.8" dur="2s" repeatCount="indefinite"/>
    </rect>
    <rect x="2" y="2" width="16" height="11" fill="#fff" opacity="0.9"/>
    <line x1="4" y1="6" x2="16" y2="6" stroke="#333" stroke-width="1" opacity="0.7"/>
    <line x1="4" y1="8" x2="16" y2="8" stroke="#333" stroke-width="1" opacity="0.7"/>
    <line x1="4" y1="10" x2="12" y2="10" stroke="#333" stroke-width="1" opacity="0.7"/>
  </g>
  <g transform="translate(100, 60)">
    <rect x="0" y="0" width="20" height="15" fill="#4caf50" opacity="0.8">
      <animate attributeName="opacity" values="0.8;1;0.8" dur="2.3s" repeatCount="indefinite"/>
    </rect>
    <rect x="2" y="2" width="16" height="11" fill="#fff" opacity="0.9"/>
    <line x1="4" y1="6" x2="16" y2="6" stroke="#333" stroke-width="1" opacity="0.7"/>
    <line x1="4" y1="8" x2="16" y2="8" stroke="#333" stroke-width="1" opacity="0.7"/>
    <line x1="4" y1="10" x2="12" y2="10" stroke="#333" stroke-width="1" opacity="0.7"/>
  </g>
  <g transform="translate(160, 30)">
    <rect x="0" y="0" width="20" height="15" fill="#2196f3" opacity="0.8">
      <animate attributeName="opacity" values="0.8;1;0.8" dur="1.8s" repeatCount="indefinite"/>
    </rect>
    <rect x="2" y="2" width="16" height="11" fill="#fff" opacity="0.9"/>
    <line x1="4" y1="6" x2="16" y2="6" stroke="#333" stroke-width="1" opacity="0.7"/>
    <line x1="4" y1="8" x2="16" y2="8" stroke="#333" stroke-width="1" opacity="0.7"/>
    <line x1="4" y1="10" x2="12" y2="10" stroke="#333" stroke-width="1" opacity="0.7"/>
  </g>
  <g transform="translate(20, 120)">
    <rect x="0" y="0" width="20" height="15" fill="#9c27b0" opacity="0.8">
      <animate attributeName="opacity" values="0.8;1;0.8" dur="2.1s" repeatCount="indefinite"/>
    </rect>
    <rect x="2" y="2" width="16" height="11" fill="#fff" opacity="0.9"/>
    <line x1="4" y1="6" x2="16" y2="6" stroke="#333" stroke-width="1" opacity="0.7"/>
    <line x1="4" y1="8" x2="16" y2="8" stroke="#333" stroke-width="1" opacity="0.7"/>
    <line x1="4" y1="10" x2="12" y2="10" stroke="#333" stroke-width="1" opacity="0.7"/>
  </g>
  <g transform="translate(80, 140)">
    <rect x="0" y="0" width="20" height="15" fill="#f44336" opacity="0.8">
      <animate attributeName="opacity" values="0.8;1;0.8" dur="2.4s" repeatCount="indefinite"/>
    </rect>
    <rect x="2" y="2" width="16" height="11" fill="#fff" opacity="0.9"/>
    <line x1="4" y1="6" x2="16" y2="6" stroke="#333" stroke-width="1" opacity="0.7"/>
    <line x1="4" y1="8" x2="16" y2="8" stroke="#333" stroke-width="1" opacity="0.7"/>
    <line x1="4" y1="10" x2="12" y2="10" stroke="#333" stroke-width="1" opacity="0.7"/>
  </g>
  <g transform="translate(140, 160)">
    <rect x="0" y="0" width="20" height="15" fill="#ff5722" opacity="0.8">
      <animate attributeName="opacity" values="0.8;1;0.8" dur="1.9s" repeatCount="indefinite"/>
    </rect>
    <rect x="2" y="2" width="16" height="11" fill="#fff" opacity="0.9"/>
    <line x1="4" y1="6" x2="16" y2="6" stroke="#333" stroke-width="1" opacity="0.7"/>
    <line x1="4" y1="8" x2="16" y2="8" stroke="#333" stroke-width="1" opacity="0.7"/>
    <line x1="4" y1="10" x2="12" y2="10" stroke="#333" stroke-width="1" opacity="0.7"/>
  </g>
</svg>
