<svg width="200" height="200" viewBox="0 0 200 200" xmlns="http://www.w3.org/2000/svg">
  <defs>
    <linearGradient id="mayGrad" x1="0%" y1="0%" x2="100%" y2="100%">
      <stop offset="0%" style="stop-color:#fff3e0;stop-opacity:0.8" />
      <stop offset="100%" style="stop-color:#ffcc80;stop-opacity:0.6" />
    </linearGradient>
  </defs>
  <!-- Spring flowers -->
  <g transform="translate(40, 40)">
    <circle cx="0" cy="0" r="4" fill="#ffeb3b" opacity="0.8">
      <animate attributeName="opacity" values="0.8;1;0.8" dur="2s" repeatCount="indefinite"/>
    </circle>
    <circle cx="0" cy="0" r="2" fill="#ffc107" opacity="0.6"/>
  </g>
  <g transform="translate(80, 60)">
    <circle cx="0" cy="0" r="4" fill="#ffeb3b" opacity="0.8">
      <animate attributeName="opacity" values="0.8;1;0.8" dur="2.3s" repeatCount="indefinite"/>
    </circle>
    <circle cx="0" cy="0" r="2" fill="#ffc107" opacity="0.6"/>
  </g>
  <g transform="translate(120, 30)">
    <circle cx="0" cy="0" r="4" fill="#ffeb3b" opacity="0.8">
      <animate attributeName="opacity" values="0.8;1;0.8" dur="1.8s" repeatCount="indefinite"/>
    </circle>
    <circle cx="0" cy="0" r="2" fill="#ffc107" opacity="0.6"/>
  </g>
  <g transform="translate(160, 50)">
    <circle cx="0" cy="0" r="4" fill="#ffeb3b" opacity="0.8">
      <animate attributeName="opacity" values="0.8;1;0.8" dur="2.1s" repeatCount="indefinite"/>
    </circle>
    <circle cx="0" cy="0" r="2" fill="#ffc107" opacity="0.6"/>
  </g>
  <g transform="translate(20, 100)">
    <circle cx="0" cy="0" r="4" fill="#ffeb3b" opacity="0.8">
      <animate attributeName="opacity" values="0.8;1;0.8" dur="2.4s" repeatCount="indefinite"/>
    </circle>
    <circle cx="0" cy="0" r="2" fill="#ffc107" opacity="0.6"/>
  </g>
  <g transform="translate(60, 120)">
    <circle cx="0" cy="0" r="4" fill="#ffeb3b" opacity="0.8">
      <animate attributeName="opacity" values="0.8;1;0.8" dur="1.9s" repeatCount="indefinite"/>
    </circle>
    <circle cx="0" cy="0" r="2" fill="#ffc107" opacity="0.6"/>
  </g>
  <g transform="translate(100, 110)">
    <circle cx="0" cy="0" r="4" fill="#ffeb3b" opacity="0.8">
      <animate attributeName="opacity" values="0.8;1;0.8" dur="2.2s" repeatCount="indefinite"/>
    </circle>
    <circle cx="0" cy="0" r="2" fill="#ffc107" opacity="0.6"/>
  </g>
  <g transform="translate(140, 130)">
    <circle cx="0" cy="0" r="4" fill="#ffeb3b" opacity="0.8">
      <animate attributeName="opacity" values="0.8;1;0.8" dur="2.5s" repeatCount="indefinite"/>
    </circle>
    <circle cx="0" cy="0" r="2" fill="#ffc107" opacity="0.6"/>
  </g>
  <g transform="translate(180, 100)">
    <circle cx="0" cy="0" r="4" fill="#ffeb3b" opacity="0.8">
      <animate attributeName="opacity" values="0.8;1;0.8" dur="2.6s" repeatCount="indefinite"/>
    </circle>
    <circle cx="0" cy="0" r="2" fill="#ffc107" opacity="0.6"/>
  </g>
</svg>
