<svg width="200" height="200" viewBox="0 0 200 200" xmlns="http://www.w3.org/2000/svg">
  <defs>
    <linearGradient id="heartGrad" x1="0%" y1="0%" x2="100%" y2="100%">
      <stop offset="0%" style="stop-color:#fce4ec;stop-opacity:0.8" />
      <stop offset="100%" style="stop-color:#f8bbd9;stop-opacity:0.6" />
    </linearGradient>
  </defs>
  <g transform="translate(50, 50)">
    <path d="M12,21.35l-1.45-1.32C5.4,15.36,2,12.28,2,8.5 2,5.42,4.42,3,7.5,3c1.74,0,3.41,0.81,4.5,2.09C13.09,3.81,14.76,3,16.5,3 19.58,3,22,5.42,22,8.5c0,3.78-3.4,6.86-8.55,11.54L12,21.35z" fill="#e91e63" opacity="0.8">
      <animate attributeName="opacity" values="0.8;1;0.8" dur="2s" repeatCount="indefinite"/>
    </path>
  </g>
  <g transform="translate(120, 80)">
    <path d="M12,21.35l-1.45-1.32C5.4,15.36,2,12.28,2,8.5 2,5.42,4.42,3,7.5,3c1.74,0,3.41,0.81,4.5,2.09C13.09,3.81,14.76,3,16.5,3 19.58,3,22,5.42,22,8.5c0,3.78-3.4,6.86-8.55,11.54L12,21.35z" fill="#f06292" opacity="0.6">
      <animate attributeName="opacity" values="0.6;0.9;0.6" dur="2.5s" repeatCount="indefinite"/>
    </path>
  </g>
  <g transform="translate(30, 120)">
    <path d="M12,21.35l-1.45-1.32C5.4,15.36,2,12.28,2,8.5 2,5.42,4.42,3,7.5,3c1.74,0,3.41,0.81,4.5,2.09C13.09,3.81,14.76,3,16.5,3 19.58,3,22,5.42,22,8.5c0,3.78-3.4,6.86-8.55,11.54L12,21.35z" fill="#ad1457" opacity="0.7">
      <animate attributeName="opacity" values="0.7;1;0.7" dur="1.8s" repeatCount="indefinite"/>
    </path>
  </g>
  <g transform="translate(150, 150)">
    <path d="M12,21.35l-1.45-1.32C5.4,15.36,2,12.28,2,8.5 2,5.42,4.42,3,7.5,3c1.74,0,3.41,0.81,4.5,2.09C13.09,3.81,14.76,3,16.5,3 19.58,3,22,5.42,22,8.5c0,3.78-3.4,6.86-8.55,11.54L12,21.35z" fill="#c2185b" opacity="0.5">
      <animate attributeName="opacity" values="0.5;0.8;0.5" dur="2.2s" repeatCount="indefinite"/>
    </path>
  </g>
</svg>
