<svg width="200" height="200" viewBox="0 0 200 200" xmlns="http://www.w3.org/2000/svg">
  <defs>
    <linearGradient id="autumnGrad" x1="0%" y1="0%" x2="100%" y2="100%">
      <stop offset="0%" style="stop-color:#fff3e0;stop-opacity:0.8" />
      <stop offset="100%" style="stop-color:#ffcc80;stop-opacity:0.6" />
    </linearGradient>
  </defs>
  <!-- Autumn leaves -->
  <g transform="translate(40, 30)">
    <path d="M0,0 C-5,-10 5,-10 0,0 C5,-10 15,-5 10,5 C15,-5 25,0 20,10 C25,0 35,5 30,15 C35,5 45,10 40,20 C45,10 55,15 50,25 C55,15 65,20 60,30 C65,20 75,25 70,35 C75,25 85,30 80,40 C85,30 95,35 90,45 C95,35 105,40 100,50 C105,40 115,45 110,55 C115,45 125,50 120,60 C125,50 135,55 130,65 C135,55 145,60 140,70 C145,60 155,65 150,75 C155,65 165,70 160,80 C165,70 175,75 170,85 C175,75 185,80 180,90 C185,80 195,85 190,95 C195,85 200,90 200,100 C200,90 195,95 190,105 C195,95 185,100 180,110 C185,100 175,105 170,115 C175,105 165,110 160,120 C165,110 155,115 150,125 C155,115 145,120 140,130 C145,120 135,125 130,135 C135,125 125,130 120,140 C125,130 115,135 110,145 C115,135 105,140 100,150 C105,140 95,145 90,155 C95,145 85,150 80,160 C85,150 75,155 70,165 C75,155 65,160 60,170 C65,160 55,165 50,175 C55,165 45,170 40,180 C45,170 35,175 30,185 C35,175 25,180 20,190 C25,180 15,185 10,195 C15,185 5,190 0,200 C5,190 -5,195 -10,185 C-5,195 -15,190 -20,180 C-15,190 -25,185 -30,175 C-25,185 -35,180 -40,170 C-35,180 -45,175 -50,165 C-45,175 -55,170 -60,160 C-55,170 -65,165 -70,155 C-65,165 -75,160 -80,150 C-75,160 -85,155 -90,145 C-85,155 -95,150 -100,140 C-95,150 -105,145 -110,135 C-105,145 -115,140 -120,130 C-115,140 -125,135 -130,125 C-125,135 -135,130 -140,120 C-135,130 -145,125 -150,115 C-145,125 -155,120 -160,110 C-155,120 -165,115 -170,105 C-165,115 -175,110 -180,100 C-175,110 -185,105 -190,95 C-185,105 -195,100 -200,90 C-195,100 -200,95 -200,85 C-200,95 -195,90 -190,80 C-195,90 -185,85 -180,75 C-185,85 -175,80 -170,70 C-175,80 -165,75 -160,65 C-165,75 -155,70 -150,60 C-155,70 -145,65 -140,55 C-145,65 -135,60 -130,50 C-135,60 -125,55 -120,45 C-125,55 -115,50 -110,40 C-115,50 -105,45 -100,35 C-105,45 -95,40 -90,30 C-95,40 -85,35 -80,25 C-85,35 -75,30 -70,20 C-75,30 -65,25 -60,15 C-65,25 -55,20 -50,10 C-55,20 -45,15 -40,5 C-45,15 -35,10 -30,0 C-35,10 -25,5 -20,-5 C-25,5 -15,0 -10,-10 C-15,0 -5,-5 0,0 Z" fill="#ff9800" opacity="0.7">
      <animateTransform attributeName="transform" type="rotate" values="0 0 0;360 0 0" dur="8s" repeatCount="indefinite"/>
    </path>
  </g>
  <g transform="translate(120, 60)">
    <path d="M0,0 C-5,-10 5,-10 0,0 C5,-10 15,-5 10,5 C15,-5 25,0 20,10 C25,0 35,5 30,15 C35,5 45,10 40,20 C45,10 55,15 50,25 C55,15 65,20 60,30 C65,20 75,25 70,35 C75,25 85,30 80,40 C85,30 95,35 90,45 C95,35 105,40 100,50 C105,40 115,45 110,55 C115,45 125,50 120,60 C125,50 135,55 130,65 C135,55 145,60 140,70 C145,60 155,65 150,75 C155,65 165,70 160,80 C165,70 175,75 170,85 C175,75 185,80 180,90 C185,80 195,85 190,95 C195,85 200,90 200,100 C200,90 195,95 190,105 C195,95 185,100 180,110 C185,100 175,105 170,115 C175,105 165,110 160,120 C165,110 155,115 150,125 C155,115 145,120 140,130 C145,120 135,125 130,135 C135,125 125,130 120,140 C125,130 115,135 110,145 C115,135 105,140 100,150 C105,140 95,145 90,155 C95,145 85,150 80,160 C85,150 75,155 70,165 C75,155 65,160 60,170 C65,160 55,165 50,175 C55,165 45,170 40,180 C45,170 35,175 30,185 C35,175 25,180 20,190 C25,180 15,185 10,195 C15,185 5,190 0,200 C5,190 -5,195 -10,185 C-5,195 -15,190 -20,180 C-15,190 -25,185 -30,175 C-25,185 -35,180 -40,170 C-35,180 -45,175 -50,165 C-45,175 -55,170 -60,160 C-55,170 -65,165 -70,155 C-65,165 -75,160 -80,150 C-75,160 -85,155 -90,145 C-85,155 -95,150 -100,140 C-95,150 -105,145 -110,135 C-105,145 -115,140 -120,130 C-115,140 -125,135 -130,125 C-125,135 -135,130 -140,120 C-135,130 -145,125 -150,115 C-145,125 -155,120 -160,110 C-155,120 -165,115 -170,105 C-165,115 -175,110 -180,100 C-175,110 -185,105 -190,95 C-185,105 -195,100 -200,90 C-195,100 -200,95 -200,85 C-200,95 -195,90 -190,80 C-195,90 -185,85 -180,75 C-185,85 -175,80 -170,70 C-175,80 -165,75 -160,65 C-165,75 -155,70 -150,60 C-155,70 -145,65 -140,55 C-145,65 -135,60 -130,50 C-135,60 -125,55 -120,45 C-125,55 -115,50 -110,40 C-115,50 -105,45 -100,35 C-105,45 -95,40 -90,30 C-95,40 -85,35 -80,25 C-85,35 -75,30 -70,20 C-75,30 -65,25 -60,15 C-65,25 -55,20 -50,10 C-55,20 -45,15 -40,5 C-45,15 -35,10 -30,0 C-35,10 -25,5 -20,-5 C-25,5 -15,0 -10,-10 C-15,0 -5,-5 0,0 Z" fill="#ff5722" opacity="0.6">
      <animateTransform attributeName="transform" type="rotate" values="0 0 0;-360 0 0" dur="10s" repeatCount="indefinite"/>
    </path>
  </g>
  <g transform="translate(30, 120)">
    <path d="M0,0 C-5,-10 5,-10 0,0 C5,-10 15,-5 10,5 C15,-5 25,0 20,10 C25,0 35,5 30,15 C35,5 45,10 40,20 C45,10 55,15 50,25 C55,15 65,20 60,30 C65,20 75,25 70,35 C75,25 85,30 80,40 C85,30 95,35 90,45 C95,35 105,40 100,50 C105,40 115,45 110,55 C115,45 125,50 120,60 C125,50 135,55 130,65 C135,55 145,60 140,70 C145,60 155,65 150,75 C155,65 165,70 160,80 C165,70 175,75 170,85 C175,75 185,80 180,90 C185,80 195,85 190,95 C195,85 200,90 200,100 C200,90 195,95 190,105 C195,95 185,100 180,110 C185,100 175,105 170,115 C175,105 165,110 160,120 C165,110 155,115 150,125 C155,115 145,120 140,130 C145,120 135,125 130,135 C135,125 125,130 120,140 C125,130 115,135 110,145 C115,135 105,140 100,150 C105,140 95,145 90,155 C95,145 85,150 80,160 C85,150 75,155 70,165 C75,155 65,160 60,170 C65,160 55,165 50,175 C55,165 45,170 40,180 C45,170 35,175 30,185 C35,175 25,180 20,190 C25,180 15,185 10,195 C15,185 5,190 0,200 C5,190 -5,195 -10,185 C-5,195 -15,190 -20,180 C-15,190 -25,185 -30,175 C-25,185 -35,180 -40,170 C-35,180 -45,175 -50,165 C-45,175 -55,170 -60,160 C-55,170 -65,165 -70,155 C-65,165 -75,160 -80,150 C-75,160 -85,155 -90,145 C-85,155 -95,150 -100,140 C-95,150 -105,145 -110,135 C-105,145 -115,140 -120,130 C-115,140 -125,135 -130,125 C-125,135 -135,130 -140,120 C-135,130 -145,125 -150,115 C-145,125 -155,120 -160,110 C-155,120 -165,115 -170,105 C-165,115 -175,110 -180,100 C-175,110 -185,105 -190,95 C-185,105 -195,100 -200,90 C-195,100 -200,95 -200,85 C-200,95 -195,90 -190,80 C-195,90 -185,85 -180,75 C-185,85 -175,80 -170,70 C-175,80 -165,75 -160,65 C-165,75 -155,70 -150,60 C-155,70 -145,65 -140,55 C-145,65 -135,60 -130,50 C-135,60 -125,55 -120,45 C-125,55 -115,50 -110,40 C-115,50 -105,45 -100,35 C-105,45 -95,40 -90,30 C-95,40 -85,35 -80,25 C-85,35 -75,30 -70,20 C-75,30 -65,25 -60,15 C-65,25 -55,20 -50,10 C-55,20 -45,15 -40,5 C-45,15 -35,10 -30,0 C-35,10 -25,5 -20,-5 C-25,5 -15,0 -10,-10 C-15,0 -5,-5 0,0 Z" fill="#ffc107" opacity="0.8">
      <animateTransform attributeName="transform" type="rotate" values="0 0 0;360 0 0" dur="12s" repeatCount="indefinite"/>
    </path>
  </g>
  <g transform="translate(150, 140)">
    <path d="M0,0 C-5,-10 5,-10 0,0 C5,-10 15,-5 10,5 C15,-5 25,0 20,10 C25,0 35,5 30,15 C35,5 45,10 40,20 C45,10 55,15 50,25 C55,15 65,20 60,30 C65,20 75,25 70,35 C75,25 85,30 80,40 C85,30 95,35 90,45 C95,35 105,40 100,50 C105,40 115,45 110,55 C115,45 125,50 120,60 C125,50 135,55 130,65 C135,55 145,60 140,70 C145,60 155,65 150,75 C155,65 165,70 160,80 C165,70 175,75 170,85 C175,75 185,80 180,90 C185,80 195,85 190,95 C195,85 200,90 200,100 C200,90 195,95 190,105 C195,95 185,100 180,110 C185,100 175,105 170,115 C175,105 165,110 160,120 C165,110 155,115 150,125 C155,115 145,120 140,130 C145,120 135,125 130,135 C135,125 125,130 120,140 C125,130 115,135 110,145 C115,135 105,140 100,150 C105,140 95,145 90,155 C95,145 85,150 80,160 C85,150 75,155 70,165 C75,155 65,160 60,170 C65,160 55,165 50,175 C55,165 45,170 40,180 C45,170 35,175 30,185 C35,175 25,180 20,190 C25,180 15,185 10,195 C15,185 5,190 0,200 C5,190 -5,195 -10,185 C-5,195 -15,190 -20,180 C-15,190 -25,185 -30,175 C-25,185 -35,180 -40,170 C-35,180 -45,175 -50,165 C-45,175 -55,170 -60,160 C-55,170 -65,165 -70,155 C-65,165 -75,160 -80,150 C-75,160 -85,155 -90,145 C-85,155 -95,150 -100,140 C-95,150 -105,145 -110,135 C-105,145 -115,140 -120,130 C-115,140 -125,135 -130,125 C-125,135 -135,130 -140,120 C-135,130 -145,125 -150,115 C-145,125 -155,120 -160,110 C-155,120 -165,115 -170,105 C-165,115 -175,110 -180,100 C-175,110 -185,105 -190,95 C-185,105 -195,100 -200,90 C-195,100 -200,95 -200,85 C-200,95 -195,90 -190,80 C-195,90 -185,85 -180,75 C-185,85 -175,80 -170,70 C-175,80 -165,75 -160,65 C-165,75 -155,70 -150,60 C-155,70 -145,65 -140,55 C-145,65 -135,60 -130,50 C-135,60 -125,55 -120,45 C-125,55 -115,50 -110,40 C-115,50 -105,45 -100,35 C-105,45 -95,40 -90,30 C-95,40 -85,35 -80,25 C-85,35 -75,30 -70,20 C-75,30 -65,25 -60,15 C-65,25 -55,20 -50,10 C-55,20 -45,15 -40,5 C-45,15 -35,10 -30,0 C-35,10 -25,5 -20,-5 C-25,5 -15,0 -10,-10 C-15,0 -5,-5 0,0 Z" fill="#ff9800" opacity="0.5">
      <animateTransform attributeName="transform" type="rotate" values="0 0 0;-360 0 0" dur="9s" repeatCount="indefinite"/>
    </path>
  </g>
</svg>
